<svg width="40" height="40" viewBox="0 0 40 40" fill="none" xmlns="http://www.w3.org/2000/svg">
    <path fill-rule="evenodd" clip-rule="evenodd" d="M20 40C31 40 40 31 40 20C40 15.2472 38.3188 10.8685 35.523 7.42708L32.5563 10.3938C34.6057 13.0624 35.8279 16.3952 35.8279 20C35.8279 28.7054 28.7054 35.8279 20 35.8279C13.4437 35.8279 7.78558 31.7875 5.3915 26.0739L1.33433 27.1611C4.23 34.6512 11.5203 40 20 40ZM4.30508 22.0458L0.247833 23.133C0.0828791 22.0968 1.02708e-05 21.0493 0 20.0001C0 13.3778 3.26267 7.48133 8.25917 3.83633L10.3578 7.47125C6.60217 10.3718 4.172 14.9157 4.172 20C4.172 20.693 4.21767 21.3757 4.30508 22.0458ZM13.9652 5.37542C15.8274 4.601 17.8659 4.17208 20 4.17208C20.6929 4.17208 21.3758 4.21742 22.0458 4.30492L23.1331 0.24725C22.0968 0.0824472 21.0492 -0.000226602 19.9999 4.66463e-07C17.1078 4.66463e-07 14.3545 0.622834 11.8662 1.73983L13.9652 5.37542ZM26.074 5.3915L27.1613 1.33367C29.1331 2.09633 30.9565 3.16358 32.5729 4.477L29.6063 7.44367C28.5221 6.61038 27.3348 5.92062 26.0739 5.3915H26.074Z" fill="#FF6600"/>
    <path d="M19.9999 28.53C24.7107 28.53 28.5295 24.7112 28.5295 20.0004C28.5295 15.2896 24.7107 11.4707 19.9999 11.4707C15.2891 11.4707 11.4702 15.2896 11.4702 20.0004C11.4702 24.7112 15.2891 28.53 19.9999 28.53Z" fill="#DCDCDC"/>
    <path fill-rule="evenodd" clip-rule="evenodd" d="M21.1667 11.5498C25.3255 12.1187 28.5297 15.6847 28.5297 19.9997C28.5297 24.3147 25.3255 27.8807 21.1667 28.4496C17.008 27.8807 13.8037 24.3147 13.8037 19.9997C13.8037 15.6847 17.008 12.1187 21.1667 11.5498Z" fill="#EBEBEB"/>
    <path fill-rule="evenodd" clip-rule="evenodd" d="M16.7362 16.471C17.2803 15.9269 18.1704 15.9269 18.7145 16.471L21.0226 18.779L26.9356 12.866C27.4797 12.322 28.3699 12.322 28.9139 12.866C29.458 13.4101 29.4579 14.3004 28.9139 14.8444L23.0009 20.7574L21.5637 22.1946C21.2657 22.4926 20.7795 22.4926 20.4815 22.1946L19.0443 20.7574L16.7362 18.4492C16.1921 17.9051 16.1921 17.015 16.7362 16.4709V16.471Z" fill="#3CB54B"/>
</svg>
