<svg xmlns="http://www.w3.org/2000/svg" version="1.1" xmlns:xlink="http://www.w3.org/1999/xlink" id="Layer_1" x="0px" y="0px" viewBox="0 0 406 114" style="enable-background:new 0 0 406 114;" xml:space="preserve" width="406" height="114"><metadata><rdf:RDF xmlns:rdf="http://www.w3.org/1999/02/22-rdf-syntax-ns#" xmlns:dc="http://purl.org/dc/elements/1.1/"><rdf:Description><dc:creator>RealFaviconGenerator</dc:creator><dc:source>https://realfavicongenerator.net</dc:source></rdf:Description></rdf:RDF></metadata><style type="text/css">
	.st0{fill:#CA3500;}
</style><path class="st0" d="M188.7,4c3.2,2.7,2.9,5,3.3,9c1,0.5,1,0.5,2,1c-0.1,1.4-0.2,2.8-0.3,4.1c-0.1,0.8-0.1,1.5-0.2,2.3
	c-0.6,3.2-2,5.7-3.5,8.6c9.7,1.4,19.2,2.4,29,3c-0.3-0.7-0.7-1.3-1-2c-0.6-7.2-0.6-7.2,1.8-10.5C222,18,222,18,225,18
	c0.8,2,1.7,3.9,2.5,5.9c0.5,1.1,0.9,2.2,1.4,3.3C230,30,230,30,230,32c0.9,0,1.9-0.1,2.8-0.1C236,32,236,32,239,34c0,1.3,0,2.6,0,4
	c8.4,0.1,16.6-0.2,25-1c-3.5,2.3-6.8,3.1-10.8,4.1c-0.7,0.2-1.4,0.3-2.1,0.5c-4.4,1.1-8.7,1.8-13.2,2.4c3.2,3.5,6.4,7,9.7,10.5
	c1,1.1,2.1,2.3,3.1,3.5c24,26.1,68.6,35.6,102.3,37.1c4.4,0.2,8.9,0.3,13.3,0.4c6.7,0.2,13.1,0.9,19.6,2.5c0.3,1.3,0.7,2.6,1,4
	c5.9-0.3,11.9-0.7,18-1c0,1,0,2,0,3c-1.5,0.5-3,1-4.5,1.4c-0.8,0.3-1.7,0.5-2.5,0.8c-40.6,10.3-96.1-2.8-131.8-23.5
	C251.6,73.9,237,60.5,228,46c0-0.7,0-1.3,0-2c-6.4-0.3-12.7-0.5-19.1-0.7c-2.2-0.1-4.3-0.1-6.5-0.2c-12.7-1.2-12.7-1.2-24,3.5
	c-2.6,2.9-4.5,6.1-6.4,9.4c-2.5,2.6-5.2,4.8-8,7c-0.7,0.6-1.4,1.2-2.2,1.9C130,91.6,85.6,102.4,45.2,106.1c-0.9,0.1-1.8,0.2-2.7,0.3
	c-5.2,0.5-10.3,0.7-15.5,0.6c0-0.3,0-0.7,0-1c-7.9,0-15.8,0-24,0c2.7-2.7,4.4-2.5,8.1-2.9c1.2-0.1,2.5-0.3,3.7-0.4
	c1.3-0.1,2.6-0.3,3.9-0.4c1.3-0.1,2.6-0.3,3.9-0.4c5.5-0.6,10.9-1,16.4-1c0.5-2,0.5-2,1-4c8.5-2.4,17-4.2,25.8-5.7
	C104.1,85,144.4,72,170,41c-2.6-1.7-4.7-2.7-7.5-3.8c-2.7-1.2-4.4-2.1-6.6-4.3c-1.4-4.7-0.9-9.2,0.1-13.9c1.9-3.2,1.9-3.2,4-5
	c1,0,2,0,3,0c0.3,0.8,0.3,0.8,0.6,1.6c0.4,1.1,0.4,1.1,0.8,2.2c0.2,0.7,0.5,1.4,0.7,2.1c1.5,3.2,3,4.6,6.2,6
	c0.8,0.2,1.6,0.5,2.4,0.7c0.8,0.3,1.6,0.5,2.4,0.8c0.6,0.2,1.2,0.4,1.9,0.6c0.2-1.5,0.2-1.5,0.4-3.1c0.5-4.1,1.1-8.2,1.6-12.3
	c0.2-1.2,0.3-2.4,0.5-3.6c0.5-3,0.5-3,1.5-5C184.7,2.7,185.8,2.9,188.7,4z"></path><path class="st0" d="M213.7,88.8c2.5,0,5,0,7.6,0c14.8-0.1,29.1,1.1,43.5,4.9c1,0.3,1.9,0.5,2.9,0.8c8.9,2.5,19,5.4,24.3,13.5
	c-0.3,0.7-0.7,1.3-1,2c-6.6-1.8-12.8-4.1-19-7c0,0.7,0,1.3,0,2c-1.1-0.2-1.1-0.2-2.2-0.4c-3.3-0.7-6.7-1.3-10-2
	c-1.1-0.2-2.3-0.5-3.4-0.7c-41-8.1-84.5,0.6-125,7.9c-0.9,0.2-1.7,0.3-2.6,0.5c-1.6,0.3-3.2,0.6-4.8,0.9c-3.7,0.6-6.4,0.9-9.9-0.1
	c0-0.7,0-1.3,0-2c2.1-0.6,4.1-1.3,6.2-1.9c1.1-0.4,2.3-0.7,3.5-1.1c2.8-0.8,5.5-1.5,8.3-2c-0.3-1.7-0.7-3.3-1-5
	c9.8-2.8,19.7-4.3,29.7-5.7c2.7-0.4,5.4-0.8,8.2-1.2C183.9,89.9,198.6,88.8,213.7,88.8z"></path></svg>