<?xml version="1.0" encoding="utf-8"?>
<svg xmlns="http://www.w3.org/2000/svg" viewBox="0 0 280 130" width="280" height="130">
  <!-- Palm tree icon centered at top -->

  <!-- Trunk -->
  <path d="M 140 90 C 138 75 136 60 133 44" stroke="#ffffff" stroke-width="3.5" fill="none" stroke-linecap="round"/>

  <!-- Frond top-center -->
  <path d="M 133 44 C 130 30 132 16 138 10 C 138 24 136 36 133 44 Z" fill="#ffffff"/>

  <!-- Frond top-left -->
  <path d="M 133 44 C 118 32 103 24 96 16 C 108 26 122 38 133 44 Z" fill="#ffffff"/>

  <!-- Frond far-left -->
  <path d="M 133 44 C 116 40 100 46 92 40 C 106 38 122 42 133 44 Z" fill="#ffffff" opacity="0.85"/>

  <!-- Frond top-right -->
  <path d="M 133 44 C 148 30 164 22 172 14 C 160 24 146 36 133 44 Z" fill="#ffffff"/>

  <!-- Frond far-right -->
  <path d="M 133 44 C 150 39 166 44 174 38 C 161 37 147 42 133 44 Z" fill="#ffffff" opacity="0.85"/>

  <!-- Coconuts hint -->
  <circle cx="133" cy="47" r="3" fill="#ffffff" opacity="0.6"/>

  <!-- Horizontal rule -->
  <line x1="8" y1="100" x2="272" y2="100" stroke="#ffffff" stroke-width="0.6" opacity="0.5"/>

  <!-- SAIYUAN main text -->
  <text
    x="140" y="118"
    font-family="Georgia, 'Times New Roman', serif"
    font-size="24"
    fill="#ffffff"
    letter-spacing="10"
    text-anchor="middle"
    font-weight="400"
  >SAIYUAN</text>

  <!-- Horizontal rule -->
  <line x1="8" y1="122" x2="272" y2="122" stroke="#ffffff" stroke-width="0.6" opacity="0.5"/>

  <!-- BEACH RESORT subtitle -->
  <text
    x="140" y="130"
    font-family="Georgia, 'Times New Roman', serif"
    font-size="7.5"
    fill="#ffffff"
    letter-spacing="5"
    text-anchor="middle"
    opacity="0.75"
  >BEACH RESORT · KOH LIBONG</text>
</svg>
